
<svg xmlns="http://www.w3.org/2000/svg" viewBox="0 0 900 600">
  <rect width="900" height="600" fill="#de2910"/>
  <g fill="#ffde00">
    <path d="M170,95 225,235 85,145 255,145 115,235z"/>
    <path d="M290,50 305,85 340,85 310,105 325,140 290,115 255,140 270,105 240,85 275,85z"/>
    <path d="M290,155 305,190 340,190 310,210 325,245 290,220 255,245 270,210 240,190 275,190z"/>
    <path d="M390,95 405,130 440,130 410,150 425,185 390,160 355,185 370,150 340,130 375,130z"/>
    <path d="M390,250 405,285 440,285 410,305 425,340 390,315 355,340 370,305 340,285 375,285z"/>
  </g>
</svg>
